<?xml version="1.0" standalone="no"?>
<!DOCTYPE svg PUBLIC "-//W3C//DTD SVG 20010904//EN"
 "http://www.w3.org/TR/2001/REC-SVG-20010904/DTD/svg10.dtd">
<svg version="1.0" xmlns="http://www.w3.org/2000/svg"
 width="426.000000pt" height="89.000000pt" viewBox="0 0 426.000000 89.000000"
 preserveAspectRatio="xMidYMid meet">

<g transform="translate(0.000000,89.000000) scale(0.100000,-0.100000)"
fill="#ff7823" stroke="none">
<path d="M2175 755 c-109 -47 -203 -91 -207 -98 -5 -7 -8 -34 -8 -62 1 -27 -2
-65 -6 -82 -10 -53 3 -81 57 -120 l50 -36 -30 -31 c-36 -37 -41 -84 -13 -108
14 -13 123 -50 523 -178 25 -7 28 -2 134 190 103 188 110 198 153 219 28 14
41 26 36 31 -6 6 -115 -44 -285 -130 l-275 -139 -154 105 c-194 132 -190 129
-190 175 0 34 13 60 22 41 1 -4 74 -49 161 -101 l157 -94 88 36 87 37 65 -14
c36 -8 65 -14 66 -13 0 1 19 29 41 62 37 55 47 63 119 93 124 51 128 57 52 82
-36 11 -49 32 -28 45 6 3 10 11 10 16 0 20 -20 -3 -114 -136 -54 -75 -102
-132 -109 -130 -6 2 -131 27 -277 55 -146 27 -275 52 -287 55 -26 6 -45 62
-36 107 5 25 9 28 32 24 14 -3 154 -26 310 -51 230 -37 287 -43 296 -33 113
123 195 218 195 225 0 5 -82 15 -182 22 -101 6 -199 14 -218 16 -28 4 -77 -13
-235 -80z m480 -527 l-96 -175 -259 82 c-143 45 -266 88 -275 95 -18 15 -19
40 -2 63 20 26 143 -12 219 -69 33 -24 63 -44 67 -44 3 0 15 7 25 15 26 20 47
19 141 -9 l80 -24 73 111 c61 95 107 145 120 132 2 -2 -40 -82 -93 -177z"/>
<path d="M733 642 c-24 -2 -34 -9 -38 -25 -2 -12 -20 -105 -40 -207 -36 -193
-36 -203 10 -198 11 2 21 12 23 23 10 65 10 66 55 63 40 -3 42 -4 50 -46 7
-37 11 -42 35 -42 55 0 55 3 -3 224 -29 114 -55 209 -57 210 -2 0 -18 0 -35
-2z m22 -208 c14 -62 10 -74 -29 -74 -11 0 -16 5 -13 13 3 8 8 40 12 71 4 31
9 55 12 52 2 -2 10 -30 18 -62z"/>
<path d="M1111 541 l-13 -110 -51 105 c-43 87 -54 104 -74 104 -13 0 -23 -1
-24 -2 0 -2 -6 -87 -12 -190 l-12 -188 43 0 43 0 -5 113 -6 112 47 -97 c42
-90 49 -98 75 -98 15 0 28 6 28 13 1 6 7 82 14 167 8 85 11 158 7 161 -3 4
-15 10 -27 13 -19 6 -21 0 -33 -103z"/>
<path d="M3483 640 c-56 -23 -98 -136 -91 -247 5 -89 32 -143 81 -162 88 -33
169 70 170 217 0 80 -22 152 -55 180 -21 17 -78 24 -105 12z m85 -90 c29 -56
-3 -240 -42 -240 -53 0 -77 150 -36 229 24 49 55 53 78 11z"/>
<path d="M3746 620 c-62 -55 -91 -192 -63 -291 53 -180 228 -112 244 94 14
171 -86 280 -181 197z m107 -80 c20 -40 17 -128 -8 -187 -44 -105 -116 13 -86
141 21 90 61 110 94 46z"/>
<path d="M3976 598 c-3 -29 -7 -125 -8 -213 l-3 -160 30 0 30 0 5 77 c3 43 8
80 11 83 3 3 22 -21 42 -52 20 -32 41 -64 46 -72 8 -12 14 -12 39 -2 l30 13
-50 80 c-27 44 -52 86 -55 94 -3 7 16 43 42 80 35 51 43 69 33 75 -27 18 -44
7 -82 -51 -21 -33 -39 -60 -40 -60 -2 0 -1 36 2 80 l5 80 -36 0 c-35 0 -35 0
-41 -52z"/>
<path d="M363 632 c-8 -5 -13 -66 -15 -204 l-3 -196 38 -4 37 -4 0 82 c0 44 3
84 8 88 4 4 25 -31 47 -78 l40 -86 29 23 28 23 -36 72 -36 71 26 38 c36 52 30
115 -15 155 -26 23 -40 28 -84 28 -28 0 -57 -4 -64 -8z m117 -71 c0 -5 3 -16
6 -24 7 -18 -21 -47 -47 -47 -16 0 -19 7 -19 40 0 38 2 40 30 40 17 0 30 -4
30 -9z"/>
<path d="M3126 623 c-7 -7 1 -322 10 -379 4 -27 10 -33 39 -38 51 -10 121 12
150 46 48 56 23 178 -40 194 -23 6 -36 24 -17 24 13 0 32 48 32 81 0 18 -9 39
-25 54 -20 21 -34 25 -83 25 -32 0 -62 -3 -66 -7z m98 -49 c23 -9 20 -39 -9
-71 l-24 -28 -1 46 c0 56 5 64 34 53z m23 -186 c28 -26 30 -69 3 -93 -34 -31
-50 -13 -50 55 0 66 9 74 47 38z"/>
<path d="M138 600 c-83 -65 -100 -282 -28 -360 57 -61 150 -23 184 77 35 102
12 247 -45 287 -32 22 -81 20 -111 -4z m99 -80 c27 -53 8 -201 -28 -221 -25
-13 -38 -4 -55 37 -24 57 -14 160 19 202 16 20 50 10 64 -18z"/>
<path d="M1290 594 c-53 -45 -74 -98 -74 -189 0 -118 39 -181 112 -176 20 2
45 3 54 4 9 1 15 4 13 7 -2 3 0 12 6 20 6 11 9 6 9 -17 0 -34 5 -39 29 -24 11
7 13 30 8 111 -3 56 -7 104 -10 106 -2 3 -23 2 -46 -2 -37 -6 -41 -9 -41 -35
0 -22 5 -29 20 -29 26 0 27 -31 2 -53 -25 -22 -48 -21 -72 3 -23 23 -28 108
-9 157 23 61 77 91 108 61 10 -11 16 -8 31 12 19 25 19 25 -2 47 -31 33 -96
32 -138 -3z"/>
<path d="M1600 605 c-8 -2 -32 -6 -52 -10 l-38 -6 0 -189 0 -190 90 0 90 0 0
28 c0 27 0 27 -61 24 l-62 -4 7 32 c3 18 6 41 6 51 0 15 8 19 40 19 38 0 40 1
40 33 0 32 0 32 -45 29 l-45 -4 0 61 0 61 50 0 50 0 0 35 c0 32 -3 35 -27 34
-16 -1 -35 -3 -43 -4z"/>
</g>
</svg>
